<?xml version="1.0" encoding="utf-8"?>
<!-- Generator: Adobe Illustrator 21.0.2, SVG Export Plug-In . SVG Version: 6.00 Build 0)  -->
<svg version="1.1" id="Layer_1" xmlns="http://www.w3.org/2000/svg" xmlns:xlink="http://www.w3.org/1999/xlink" x="0px" y="0px"
	 viewBox="0 0 50 50" style="enable-background:new 0 0 50 50;" xml:space="preserve">
<style type="text/css">
	.st0{opacity:0.27;}
	.st1{fill:#FCDB04;}
	.st2{opacity:0.14;fill:#FFC801;enable-background:new    ;}
	.st3{fill:#FFC801;}
</style>
<g class="st0">
	<g>
		<path class="st1" d="M76.3,27.6"/>
	</g>
</g>
<path class="st2" d="M-62.7,19.1"/>
<path class="st3" d="M25,0C11.1,0,0,11.1,0,25s11.1,25,25,25s25-11.1,25-25S38.9,0,25,0z"/>
<path d="M38,18.4c0-0.3-0.4-0.6-0.8-0.6h-2.7c-0.8-2.9-3.4-5.1-6.5-5.1c-3.8,0-6.9,3.2-6.9,7.2c0,1.2,0.3,2.3,0.8,3.2h-0.3H19h-0.8
	h-5.5c-0.5,0-0.8,0.2-0.8,0.6v5.5c0,0.1,0,0.1,0,0.1v0.1c0,4.4,5.2,8,11.7,8c4.6,0,8.6-1.8,10.5-4.4c0.8-0.9,1.4-2.4,1.4-3.8
	c0-2.1-0.8-3.9-2-4.9c0.5-0.8,0.9-1.6,1.2-2.6C37.3,21.4,37.8,19.4,38,18.4z M29,18.8c-0.7,0-1.2-0.5-1.2-1.2c0-0.7,0.5-1.2,1.2-1.2
	s1.2,0.5,1.2,1.2C30.2,18.3,29.6,18.8,29,18.8z"/>
</svg>
